<svg width="205" height="205" viewBox="0 0 205 205" fill="none" xmlns="http://www.w3.org/2000/svg">
<path d="M153.75 25.625H179.375V51.25H153.75V25.625ZM25.625 89.6875H0V115.312H38.4375V102.5H25.625V89.6875ZM89.6875 115.312H115.312V140.938H89.6875V115.312ZM38.4375 89.6875H64.0625V102.5H38.4375V89.6875ZM115.312 153.75H89.6875V166.562H102.5V179.375H115.312V166.562V153.75ZM76.875 89.6875V102.5H64.0625V115.312H89.6875V89.6875H76.875ZM102.5 51.25H115.312V76.875H102.5V51.25ZM115.312 102.5V115.312H140.938V89.6875H102.5V102.5H115.312ZM89.6875 76.875H102.5V89.6875H89.6875V76.875ZM115.312 179.375H140.938V205H115.312V179.375ZM89.6875 179.375H102.5V205H89.6875V179.375ZM115.312 140.938H128.125V153.75H115.312V140.938ZM115.312 38.4375V12.8125H102.5V0H89.6875V51.25H102.5V38.4375H115.312ZM153.75 179.375H166.562V205H153.75V179.375ZM153.75 153.75H179.375V166.562H153.75V153.75ZM140.938 166.562H153.75V179.375H140.938V166.562ZM128.125 153.75H140.938V166.562H128.125V153.75ZM179.375 128.125V140.938H192.188V153.75H205V128.125H192.188H179.375ZM192.188 166.562H179.375V205H205V179.375H192.188V166.562ZM128.125 128.125V140.938H166.562V115.312H140.938V128.125H128.125ZM153.75 89.6875V102.5H179.375V115.312H205V89.6875H179.375H153.75Z" fill="black"/>
</svg>
